<?xml version="1.0" encoding="utf-8"?>
<!-- Generator: Adobe Illustrator 21.0.0, SVG Export Plug-In . SVG Version: 6.00 Build 0)  -->
<svg version="1.1" id="Layer_1" xmlns="http://www.w3.org/2000/svg" xmlns:xlink="http://www.w3.org/1999/xlink" x="0px" y="0px"
	 viewBox="0 0 85 85" style="enable-background:new 0 0 85 85;" xml:space="preserve">
<style type="text/css">
	.st0{fill:#FFFFFF;}
</style>
<path class="st0" d="M34.6,56.9L8.1,83.4c-2.1,2.1-5.5,2.1-7,0.5c-1.6-1.6-1.5-4.9,0.5-7l26.5-26.5L34.6,56.9z M52.9,35.2
	c4.4,2.5,11.3,0.8,17.2-5.1L85,12.5l-1.3-1.3L67.9,27.9c-0.6,0.6-1.6,0.6-2.2,0c-0.6-0.6-0.6-1.6,0-2.2L81.3,8.9L80,7.6l-16.4,16
	c-0.6,0.6-1.6,0.6-2.2,0c-0.6-0.6-0.6-1.6,0-2.2L77.4,5l-1.3-1.3L59.3,19.3c-0.6,0.6-1.6,0.6-2.2,0c-0.6-0.6-0.6-1.6,0-2.2L73.8,1.3
	L72.5,0L54.9,14.9c-5.9,5.9-7.6,12.8-5.1,17.2c0,0.6-0.2,1.1-0.6,1.5l0,0L31.4,50.2l3.4,3.4l16.5-17.8l0,0
	C51.7,35.3,52.3,35.1,52.9,35.2z"/>
<path class="st0" d="M54.5,47.9l28,28c2.2,2.2,1.9,6.1,0.2,7.8s-5.6,2-7.8-0.2l-28-28L54.5,47.9z M42.6,47.2c0.4,0,0.9,0,1.3,0
	l3.8,3.8l3-3l-2.5-2.5l-18-18L2.5,0C0.9,1.6,0.6,4.4,1.3,7.8l0.1,0l0.7,0.1L1.5,8.7c0.1,0.2,0.1,0.5,0.2,0.7L2,9.4l0.7,0.1L2,10.5
	c0.1,0.2,0.1,0.3,0.2,0.5L2.5,11l0.7,0.1L2.6,12c0,0.1,0.1,0.2,0.1,0.4l0.6,0.1L4,12.5l-0.7,1.1c0,0.1,0.1,0.2,0.1,0.2l0.2,0L4.2,14
	l0.7,0.1L4,15.3c0,0,0,0.1,0.1,0.1l0.4,0.1l0.7,0.1l0.7,0.1L5,16.9L5,17c0,0,0,0,0,0l0.6,0.1l0.6,0.1l0.7,0.1l-0.8,1.3L6,18.8
	l0.8,0.1L7.4,19L8,19l-0.8,1.3l-0.1,0.2L8,20.7l0.6,0.1l0.6,0.1l-0.7,1.3l-0.2,0.3l0.9,0.1l0.6,0.1l0.6,0.1l-0.7,1.3l-0.2,0.3l1,0.1
	l0.6,0l0.6,0l-0.7,1.3L11,25.9l1,0.1l0.6,0l0.6,0l-0.7,1.3l-0.1,0.3l1.1,0l0.6,0l0.6,0l-0.6,1.3L14,29.3l1.1,0l0.6,0l0.6,0l-0.6,1.3
	l-0.1,0.1l1.1-0.1l0.6-0.2h0.6L17.2,32l0,0.3l1.1,0l0.5,0l0.6,0l-0.5,1.4l-0.1,0.2l0.1-0.1l1.1,0l0.5,0l0.5,0l-0.5,1.4l-0.1,0.3
	l0.2-0.2l1.1-0.1l0.5,0l0.5,0l-0.5,1.4l-0.1,0.3l0.2-0.3l1-0.1l0.5,0l0.5,0l-0.5,1.4l-0.1,0.3l0.3-0.3l1-0.1l0.5,0l0.5-0.1L25.7,39
	l-0.1,0.3l0.3-0.3l1-0.1l0.5-0.1l0.5-0.1l-0.4,1.4l-0.1,0.2l0.3-0.2l1-0.1l0.5-0.1l0.5-0.1l-0.4,1.5l0,0.1l0.2-0.2l1-0.2L31,41
	l0.6-0.1l-0.1,1.5v0l-0.1-0.1l0.7-0.2l0.5-0.1l0.5-0.1l-0.3,1.4l0.1-0.1l0.9-0.2l0.5-0.1l0.5-0.1l-0.2,1.3l0,0l0.9-0.2l0.4-0.1
	l0.5-0.1L36,44.9l0.8-0.2l0.4-0.1l0.4-0.1l-0.2,1.1l0.7-0.2l0.4-0.1l0.4-0.1l-0.1,1l0.5-0.2l0.4-0.1l0.4-0.1l-0.1,0.9l0.4-0.1
	l0.4-0.1l0.4-0.2l-0.1,0.9c0.1,0,0.1,0,0.2,0l0.5-0.2l0.4-0.2l0.4-0.2L42.6,47.2z"/>
</svg>
